# xmcd CD database file
#
# Track frame offsets:
#	150
#	20487
#	38120
#	49165
#	70190
#	86090
#	104977
#	120255
#	137272
#	156927
#	176515
#	190337
#	207842
#	225595
#	236955
#	260890
#	286930
#
# Disc length: 4110 seconds
#
# Revision: 3
# Processed by: cddbd v1.4PL0 Copyright (c) Steve Scherf et al.
# Submitted via: CDex 1.40Release
#
DISCID=f5100c11
DTITLE=Gladys Knight and The Pips - Blue Lights In The Basement
DYEAR=1996
DGENRE=Soul
TTITLE0=Where Peaceful Waters Flow
TTITLE1=With You In Mind
TTITLE2=The Makings Of You
TTITLE3=Midnight Train To Georgia
TTITLE4=Nobody But You
TTITLE5=Sorry Doesn't Always Make It Right
TTITLE6=The Way It Was
TTITLE7=Best Thing That Ever Happened To Me
TTITLE8=Pipe Dreams
TTITLE9=What If I Should Ever Need You
TTITLE10=The One And Only
TTITLE11=So Sad The Song
TTITLE12=Love Finds Its Own Way
TTITLE13=Part Time Love
TTITLE14=Hold On
TTITLE15=To Make A Long Story Short
TTITLE16=Try To Remember/The Way We Were
EXTD=YEAR: 1996 ID3G: 42
EXTT0=
EXTT1=
EXTT2=
EXTT3=
EXTT4=
EXTT5=
EXTT6=
EXTT7=
EXTT8=
EXTT9=
EXTT10=
EXTT11=
EXTT12=
EXTT13=
EXTT14=
EXTT15=
EXTT16=
PLAYORDER=
